<?xml version="1.0" standalone="no"?>
<!DOCTYPE svg PUBLIC "-//W3C//DTD SVG 20010904//EN"
 "http://www.w3.org/TR/2001/REC-SVG-20010904/DTD/svg10.dtd">
<svg version="1.0" xmlns="http://www.w3.org/2000/svg"
 width="800.000000pt" height="600.000000pt" viewBox="0 0 800.000000 600.000000"
 preserveAspectRatio="xMidYMid meet">

<g transform="translate(0.000000,600.000000) scale(0.100000,-0.100000)"
fill="#000000" stroke="none">
<path d="M4100 3840 c17 -6 -4 -7 -66 -3 -90 5 -134 0 -134 -17 0 -12 25 -19
150 -40 95 -16 174 -36 200 -50 14 -7 27 -13 30 -12 20 7 182 -83 231 -127 18
-17 36 -28 41 -25 4 3 8 -1 8 -8 0 -7 24 -37 53 -67 28 -29 52 -56 52 -60 0
-3 9 -19 21 -36 69 -98 116 -260 118 -400 1 -134 -7 -194 -43 -298 -16 -48
-26 -87 -23 -87 4 0 2 -4 -5 -8 -6 -4 -34 -41 -61 -82 -27 -42 -73 -98 -102
-125 -30 -28 -63 -59 -75 -70 -12 -11 -41 -31 -66 -44 -24 -13 -52 -31 -61
-39 -10 -8 -18 -12 -18 -8 0 3 -15 -1 -32 -10 -47 -24 -196 -64 -240 -64 -21
0 -38 -4 -38 -10 0 -12 -37 -13 -42 -1 -1 5 -39 12 -83 15 -115 10 -118 11
-249 56 -66 22 -126 38 -133 36 -7 -3 -13 -1 -13 4 0 6 -8 10 -18 10 -10 0
-19 -7 -19 -15 0 -8 4 -12 8 -10 4 3 21 2 38 -1 21 -5 31 -12 31 -25 0 -12 7
-19 20 -19 13 0 20 -7 20 -20 0 -17 7 -20 40 -20 22 0 40 -4 40 -10 0 -6 27
-10 60 -10 57 0 60 -1 60 -25 0 -29 0 -29 262 -29 121 -1 138 1 138 15 0 17
38 29 91 29 16 0 29 4 29 9 0 5 18 12 40 16 30 5 40 11 40 26 0 16 7 19 40 19
33 0 40 3 40 20 0 13 7 20 20 20 13 0 20 7 20 20 0 17 7 20 40 20 l40 0 0 40
0 40 40 0 c33 0 40 3 40 20 0 11 6 20 14 20 9 0 17 15 21 40 5 30 11 40 26 40
12 0 19 7 19 20 0 11 4 20 9 20 4 0 14 27 21 60 8 40 18 60 27 60 12 0 13 9 8
40 -4 26 -3 40 4 40 6 0 11 9 11 20 0 11 6 20 14 20 7 0 16 14 20 31 15 79 -3
400 -23 407 -6 2 -11 21 -11 43 0 21 -4 39 -10 39 -5 0 -10 9 -10 20 0 13 -7
20 -20 20 -13 0 -20 7 -20 20 0 11 5 20 10 20 6 0 10 9 10 20 0 15 -7 20 -25
20 -18 0 -25 5 -25 20 0 11 -7 20 -15 20 -8 0 -15 9 -15 20 0 13 -7 20 -20 20
-11 0 -20 -5 -20 -11 0 -5 -4 -7 -10 -4 -5 3 -10 17 -10 31 0 13 5 24 10 24 6
0 10 9 10 20 0 13 -7 20 -20 20 -13 0 -20 7 -20 20 0 13 -7 20 -20 20 -13 0
-20 7 -20 20 0 13 -7 20 -20 20 -11 0 -20 6 -20 14 0 9 -15 17 -40 21 -30 5
-40 11 -40 26 0 12 -7 19 -20 19 -12 0 -20 7 -20 16 0 13 -7 15 -40 9 -36 -6
-40 -5 -40 13 0 16 -9 22 -40 26 -22 3 -58 9 -80 12 -31 4 -40 10 -40 25 0 14
-7 19 -29 19 -16 0 -44 2 -62 5 -30 4 -31 4 -9 -5z"/>
<path d="M4680 3500 c0 -5 9 -10 20 -10 11 0 20 5 20 10 0 6 -9 10 -20 10 -11
0 -20 -4 -20 -10z"/>
<path d="M3122 3104 c-6 -52 -7 -105 -3 -117 7 -20 9 -19 24 13 25 55 28 200
4 200 -9 0 -17 -29 -25 -96z m11 -84 c-3 -11 -7 -20 -9 -20 -2 0 -4 9 -4 20 0
11 4 20 9 20 5 0 7 -9 4 -20z"/>
</g>
</svg>
